<svg width="22" height="23" fill="none" xmlns="http://www.w3.org/2000/svg"><path d="M12.557 9.724c.052.007.106.01.162.01.378 0 .79-.17 1.227-.597.373-.364.828-1.265.626-2.53-.17-1.05-.975-3.234-4.767-5.048.021.396-.092.768-.246 1.106-.166.363-.401.734-.629 1.092l-.017.027c-.706 1.11-1.474 2.34-1.171 4.114l4.815 1.826zm0 0c.363-2.454-.005-4.252-.705-6.081a.907.907 0 00-1.192-.528l-.007.003a.938.938 0 00-.5 1.2c.651 1.706.952 3.263.53 5.57l1.874-.164zm0 0l-1.875.164 1.875-.164zm-1.875.164a2.39 2.39 0 01-.638.112c-.636 0-1.146-.205-1.524-.55-.382-.35-.662-.871-.778-1.551l2.94 1.989zM.957 15l.4-.3-.012-.015-.013-.015-.079-.09c-.23-.26-.39-.441-.515-.701C.604 13.6.5 13.199.5 12.499v-6c0-.382.124-.62.274-.762.155-.147.384-.237.66-.237.278 0 .506.09.661.237.15.143.275.38.275.763v4.17a1.43 1.43 0 00-.29.27 2.11 2.11 0 00-.417.894c-.157.732.016 1.647.833 2.51l2.095 2.34.003.005a.868.868 0 001.294-.002.96.96 0 000-1.278l-.002-.002-2.29-2.544-.003-.003a.75.75 0 01.008-1h.002a.547.547 0 01.278-.155c.097-.018.321-.023.664.333l2.287 2.55.005.005.005.006c.962 1.012 1.745 2.24 1.745 3.9v4H4.804v-3.163l-.097-.132c-.962-1.3-1.928-2.599-2.896-3.894l-.33-.443-.091-.123-.024-.032-.006-.008-.002-.002L.957 15zm17.451-2.14l-.002.003-2.292 2.544-.002.002a.959.959 0 000 1.277.867.867 0 001.294.003l.003-.004 2.095-2.34c.817-.864.99-1.78.834-2.511a2.114 2.114 0 00-.417-.893 1.428 1.428 0 00-.29-.272v-4.17c0-.382.124-.62.274-.762.155-.147.383-.237.66-.237s.506.09.66.237c.15.143.275.38.275.763v6c0 .7-.104 1.1-.238 1.379-.125.26-.286.442-.515.702l-.079.089-.013.015-.012.016.4.3-.4-.3-.002.003-.007.008-.024.032-.091.123-.33.443c-.966 1.297-1.931 2.595-2.896 3.894l-.097.132V22.5h-3.783v-4c0-1.661.783-2.89 1.745-3.901l.005-.006.005-.005 2.287-2.55c.343-.357.567-.35.664-.333.14.025.25.12.282.156a.754.754 0 01.007 1v-.001z" fill="#2C70C1"/><path fill-rule="evenodd" clip-rule="evenodd" d="M9.261.744l.76.364c3.93 1.88 4.847 4.197 5.045 5.419.226 1.415-.274 2.482-.77 2.967-.504.493-1.035.74-1.577.74-.054 0-.11-.003-.168-.008l-1.773.155a2.8 2.8 0 01-.715.118h-.019c-.75 0-1.383-.244-1.861-.68-.417-.382-.718-.91-.875-1.551l-.01-.004-.042-.243a4.091 4.091 0 01-.007-.038l-.197-1.155.126.086c.06-1.427.742-2.501 1.313-3.398l.016-.026.001-.002c.232-.363.447-.705.596-1.03.137-.3.217-.589.202-.873L9.26.745zm3.874 8.38c.137-.069.291-.178.461-.345.25-.243.66-.978.482-2.093-.09-.562-.408-1.605-1.582-2.74.547 1.564.84 3.164.64 5.179zm-2.46-6.538a13.21 13.21 0 00-.46-.26 3.586 3.586 0 01-.287.725c.141-.168.32-.303.525-.392l.003-.001.007-.003.197.46-.187-.464a1.44 1.44 0 01.202-.065zm.176.99a.438.438 0 00-.232.56l.001.003c.554 1.452.868 2.82.723 4.59l.797.302c.205-2.041-.14-3.602-.755-5.21l-.002-.006a.408.408 0 00-.532-.238zm-.485 4.782c.076-1.458-.202-2.609-.68-3.86a1.438 1.438 0 01-.025-.968c-.103.171-.209.337-.309.494v.001l-.016.025-.001.002C8.67 5.097 8.047 6.116 8.196 7.535l2.17.823zM1.434 6c-.167 0-.267.053-.315.099-.039.036-.119.136-.119.4v6c0 .651.097.972.188 1.162.09.188.204.322.44.588l.082.093.024.028.002.002.003.003.053.071.054.073.211.282v.001l.154.208a913.77 913.77 0 012.898 3.896v.002l.195.264V22h2.783v-3.5c0-1.483-.691-2.593-1.607-3.557l-.012-.012-.003-.003-2.286-2.55a.811.811 0 00-.216-.171l-.006.006a.25.25 0 00.006.31l2.286 2.54.002.002.01.01a1.46 1.46 0 010 1.945 1.37 1.37 0 01-2.04.003l-.014-.017-.003-.004-2.076-2.32c-.919-.973-1.147-2.05-.954-2.95.082-.404.259-.781.515-1.103l.002-.003a1.91 1.91 0 01.179-.192V6.5c0-.264-.08-.364-.12-.401-.048-.046-.147-.1-.316-.1zm-.48 8.998l-.089-.101c-.219-.248-.421-.476-.577-.801m.667.902l.3.403-.3-.403zm.3.403l.155.207A911.662 911.662 0 014.304 19.5V23h4.783v-4.5c0-1.833-.868-3.175-1.871-4.234l-.01-.01-.01-.012-2.285-2.547-.006-.006c-.209-.217-.411-.356-.611-.43a.939.939 0 00-.504-.048l-.008.001-.007.002c-.124.027-.24.076-.346.144h-.05l-.148.163a1.25 1.25 0 00-.013 1.667l.01.012.005.005 2.289 2.542a.459.459 0 01-.007.604.371.371 0 01-.425.092.368.368 0 01-.112-.078l-2.11-2.357L2.86 14c-.71-.75-.828-1.5-.707-2.062v-.005c.052-.248.16-.48.318-.68a.93.93 0 01.187-.174l.213-.15V6.5c0-.501-.169-.875-.43-1.124v-.001C2.177 5.126 1.82 5 1.433 5c-.384 0-.743.126-1.004.374C.167 5.625 0 6 0 6.5v6c0 .749.111 1.23.288 1.596M20.565 6c-.168 0-.267.053-.315.099-.038.036-.119.136-.119.4v3.934c.064.06.124.125.18.194l.001.002c.256.322.433.7.515 1.103.143.67.052 1.44-.384 2.193l.127.096c.11-.133.181-.234.241-.36.093-.191.189-.512.189-1.161v-6c0-.265-.081-.365-.12-.402-.047-.044-.145-.098-.315-.098zm-.422 8.534v-.166a4.41 4.41 0 01-.27.315l-2.077 2.319-.003.004-.015.016a1.37 1.37 0 01-2.04-.004 1.46 1.46 0 010-1.942l.01-.01.003-.004 2.26-2.507.067-.102a.253.253 0 00-.04-.247.788.788 0 00-.217.172l-2.286 2.55-.003.003-.012.012c-.915.963-1.607 2.074-1.607 3.557V22h2.783v-2.828l.194-.265.002-.002 2.896-3.894.156-.21.199-.267zm.814.582l-.036.048-.001.001-.33.443-2.894 3.892V23h-4.783v-4.5c0-1.833.868-3.176 1.871-4.234l.01-.01.01-.012 2.284-2.547.006-.006c.21-.217.413-.356.613-.43a.947.947 0 01.498-.049h.002c.245.044.427.18.52.268l.181-.271v.498a1.254 1.254 0 01-.103 1.459l-.003.004-.014.016-.003.004-.877 1.003v-.03l-1.43 1.586a.459.459 0 00.007.604.366.366 0 00.537.014l2.119-2.366c.71-.751.828-1.502.708-2.063v-.004a1.614 1.614 0 00-.318-.68.93.93 0 00-.188-.177l-.212-.15V6.5c0-.5.167-.875.429-1.125v-.001c.262-.248.62-.374 1.005-.374.384 0 .744.125 1.005.375m-.613 9.74l.062-.082-.062.083zm.062-.082l.124-.124v-.022l.001-.001c.214-.242.414-.47.569-.79.175-.367.287-.846.287-1.596v-6c0-.502-.169-.876-.43-1.125m-.515 9.61l.088-.118v-.165l-.26-.001m.172.284l-.175-.132.175.132zm-.352-.284l.145.128-.145-.128zm.326.289l.013.011-.008.01-.013-.01m.013.01l-.001.001-.012-.01m.022-.002l.001-.001-.001.001z" fill="#2C70C1"/></svg>