<svg width="24" height="26" fill="none" xmlns="http://www.w3.org/2000/svg"><path d="M9.65 2.559h.525l.199-.485c.33-.806.91-1.293 1.626-1.293.716 0 1.296.487 1.626 1.293l.199.485H20c.257 0 .495.08.692.215h-4.018V6.33H7.327V2.774H3.308c.197-.136.435-.215.692-.215h5.65zm11.313.997V3.03c.16.206.256.465.256.747V22c0 .28-.096.54-.256.747V3.556zm-.781 19.448h.51a1.22 1.22 0 01-.692.215H4a1.22 1.22 0 01-.692-.215h16.874zm-17.145-.782v.525A1.214 1.214 0 012.78 22V3.778c0-.282.096-.54.256-.747v.525l.001 18.666zm13.38-18.666v-.782H13.69v-.107c0-.95-.762-1.67-1.69-1.67-.928 0-1.69.72-1.69 1.67v.107H7.582v3.34h8.836v-.781l-.001-1.777zm-5.872 13.523l.546.534.546-.534 5.175-5.06.168.165-5.89 5.758-3.16-3.091.167-.165 2.448 2.393z" fill="#63522B" stroke="#63522B" stroke-width="1.563"/></svg>